<svg xmlns="http://www.w3.org/2000/svg" version="1.1" xmlns:xlink="http://www.w3.org/1999/xlink" xmlns:svgjs="http://svgjs.dev/svgjs" width="2000" height="2000" viewBox="0 0 2000 2000"><g transform="matrix(1,0,0,1,-0.9999999999998863,-0.9994315992145175)"><svg viewBox="0 0 280 280" data-background-color="#ffffff" preserveAspectRatio="xMidYMid meet" height="2000" width="2000" xmlns="http://www.w3.org/2000/svg" xmlns:xlink="http://www.w3.org/1999/xlink"><g id="tight-bounds" transform="matrix(1,0,0,1,0.13999999999998636,0.13992042389003245)"><svg viewBox="0 0 279.72 279.72" height="279.72" width="279.72"><g><svg viewBox="0 0 279.72 279.72" height="279.72" width="279.72"><g><svg viewBox="0 0 279.72 279.72" height="279.72" width="279.72"><g id="textblocktransform"><svg viewBox="0 0 279.72 279.72" height="279.72" width="279.72" id="textblock"><g><svg viewBox="0 0 279.72 279.72" height="279.72" width="279.72"><g transform="matrix(1,0,0,1,73.92936372216631,73.92936372216631)"><svg viewBox="0 0 131.8612725556674 131.8612725556674" height="131.8612725556674" width="131.8612725556674"><g id="icon-0"><circle r="66" cx="65.9306362778337" cy="65.9306362778337" fill="#ffb130" data-fill-palette-color="accent"></circle></g></svg></g><g id="text-0"><path d="M29.274 106.986l-1.301 3.74-26.818-9.329 1.301-3.739zM34.52 91.904l-5.88 16.904-3.212-1.117 5.88-16.904zM21.67 89.573l-5.216 14.996-3.011-1.047 5.216-14.996zM10.853 83.715l-5.867 16.865-3.164-1.1 5.867-16.866z" fill="#840028" data-fill-palette-color="primary"></path><path d="M61.04 58.297v0c-1.376 1.303-2.897 2.053-4.564 2.252-1.671 0.194-3.363-0.102-5.074-0.886-1.716-0.789-3.351-2.004-4.906-3.646v0c-1.559-1.646-2.69-3.343-3.393-5.09-0.699-1.743-0.916-3.434-0.651-5.074 0.27-1.635 1.103-3.113 2.498-4.434v0c1.145-1.084 2.307-1.732 3.486-1.944 1.183-0.207 2.362-0.144 3.535 0.19 1.164 0.333 2.275 0.852 3.332 1.556v0l0.56-0.53c-0.675-0.507-1.367-1.05-2.073-1.629-0.702-0.575-1.385-1.153-2.05-1.737-0.664-0.574-1.233-1.111-1.708-1.612v0l-4.613-4.873 2.875-2.722 13.163 13.904 7.544 7.969-2.565 2.429-3.984-4.518-0.494 0.467c0.633 1.171 1.064 2.334 1.291 3.49 0.217 1.155 0.163 2.269-0.164 3.341-0.322 1.078-1.003 2.11-2.045 3.097zM59.33 55.177v0c0.752-0.712 1.263-1.531 1.533-2.457 0.27-0.926 0.338-1.872 0.206-2.838-0.122-0.966-0.389-1.887-0.8-2.766-0.412-0.868-0.916-1.617-1.511-2.245v0l-0.349-0.369c-0.414-0.437-0.925-0.854-1.531-1.248-0.612-0.39-1.285-0.732-2.019-1.025-0.729-0.298-1.499-0.486-2.311-0.566-0.807-0.084-1.594-0.01-2.361 0.223-0.768 0.233-1.473 0.654-2.118 1.263v0c-0.939 0.889-1.474 1.899-1.605 3.03-0.136 1.136 0.068 2.312 0.614 3.528 0.546 1.226 1.361 2.412 2.445 3.557v0c1.126 1.189 2.275 2.068 3.447 2.636 1.172 0.568 2.305 0.796 3.399 0.682 1.099-0.109 2.086-0.577 2.961-1.405z" fill="#840028" data-fill-palette-color="primary"></path><path d="M108.715 31.5v0c-2.366 0.686-4.396 0.38-6.091-0.918-1.688-1.3-3.008-3.592-3.959-6.875v0l-3.486-12.021 3.802-1.103 3.39 11.69c0.671 2.314 1.528 3.933 2.571 4.857 1.043 0.924 2.338 1.161 3.885 0.712v0c0.852-0.247 1.555-0.676 2.11-1.288 0.557-0.606 0.984-1.37 1.28-2.295 0.302-0.926 0.465-1.967 0.49-3.122 0.018-1.154-0.098-2.367-0.348-3.641v0l-2.887-9.955 3.764-1.091 3.608 12.441 2.586 8.921-3.344 0.97-1.659-6.961-0.624 0.181c0.138 1.813 0.041 3.36-0.292 4.641-0.329 1.272-0.901 2.312-1.717 3.119-0.811 0.799-1.838 1.378-3.079 1.738z" fill="#840028" data-fill-palette-color="primary"></path><path d="M178.753 32.508l-3.873-0.821 5.889-27.777 3.874 0.822zM160.311 28.598l-3.873-0.821 5.89-27.777 3.873 0.821zM179.098 19.475l-18.064-3.83 0.706-3.327 18.064 3.83z" fill="#840028" data-fill-palette-color="primary"></path><path d="M215.956 55.758v0c-1.873-1.601-2.731-3.466-2.577-5.595 0.16-2.125 1.351-4.486 3.572-7.083v0l8.133-9.515 3.01 2.573-7.91 9.252c-1.566 1.831-2.448 3.436-2.647 4.815-0.199 1.379 0.313 2.592 1.538 3.638v0c0.674 0.576 1.419 0.928 2.235 1.057 0.812 0.133 1.686 0.07 2.621-0.191 0.94-0.256 1.9-0.691 2.878-1.305 0.974-0.619 1.925-1.382 2.853-2.29v0l6.734-7.878 2.979 2.546-8.417 9.846-6.036 7.061-2.646-2.263 4.906-5.208-0.494-0.422c-1.44 1.111-2.786 1.879-4.039 2.303-1.244 0.424-2.427 0.516-3.55 0.278-1.113-0.239-2.161-0.779-3.143-1.619z" fill="#840028" data-fill-palette-color="primary"></path><path d="M248.997 104.321v0c-0.534-1.332-0.724-2.579-0.57-3.741 0.15-1.154 0.572-2.202 1.266-3.144 0.688-0.939 1.557-1.791 2.607-2.554v0l-0.256-0.641-5.509 2.438-1.31-3.27 10.186-4.083 17.771-7.123 1.473 3.675-6.473 2.595c-0.691 0.277-1.43 0.533-2.218 0.769-0.785 0.242-1.602 0.46-2.451 0.653-0.846 0.2-1.669 0.384-2.469 0.553v0l0.287 0.716c1.237-0.153 2.46-0.148 3.671 0.016 1.21 0.164 2.313 0.597 3.309 1.298 0.987 0.698 1.764 1.754 2.33 3.168v0c0.702 1.753 0.843 3.432 0.422 5.036-0.419 1.611-1.309 3.073-2.672 4.385-1.354 1.315-3.111 2.406-5.272 3.273v0c-2.073 0.831-4.053 1.249-5.939 1.254-1.883-0.004-3.54-0.437-4.972-1.299-1.426-0.865-2.496-2.189-3.211-3.974zM251.836 102.155v0c0.461 1.15 1.156 2.001 2.085 2.555 0.935 0.551 2.063 0.817 3.383 0.799 1.32-0.019 2.739-0.332 4.259-0.942v0c1.489-0.597 2.729-1.342 3.72-2.235 0.985-0.89 1.656-1.871 2.015-2.94 0.359-1.07 0.303-2.192-0.168-3.367v0c-0.34-0.848-0.81-1.538-1.41-2.071-0.6-0.532-1.279-0.935-2.037-1.206-0.755-0.266-1.53-0.426-2.324-0.48-0.794-0.053-1.556-0.025-2.285 0.085-0.731 0.104-1.377 0.267-1.936 0.492v0l-0.471 0.188c-0.804 0.322-1.574 0.795-2.308 1.418-0.744 0.619-1.373 1.341-1.888 2.167-0.521 0.829-0.853 1.72-0.995 2.674-0.143 0.954-0.023 1.908 0.36 2.863z" fill="#840028" data-fill-palette-color="primary"></path><path d="M0.569 143.789c0-6.354 5.151-11.506 11.506-11.505 6.354 0 11.506 5.151 11.505 11.505 0 6.354-5.151 11.506-11.505 11.506-6.354 0-11.506-5.151-11.506-11.506z" fill="#840028" data-fill-palette-color="primary"></path><path d="M256.14 143.789c0-6.354 5.151-11.506 11.505-11.505 6.354 0 11.506 5.151 11.506 11.505 0 6.354-5.151 11.506-11.506 11.506-6.354 0-11.506-5.151-11.505-11.506z" fill="#840028" data-fill-palette-color="primary"></path></g><g id="text-1"><path d="M12.878 183.044l3.001 9.506-2.295 0.725-3.771-11.947 18.016-5.687 3.689 11.685-2.217 0.7-2.919-9.245-5.518 1.742 2.586 8.189-2.15 0.679-2.585-8.19z" fill="#840028" data-fill-palette-color="secondary"></path><path d="M33.271 201.066l4.952-2.351 1.062 2.237-18.093 8.592-0.918-1.935 1.178-0.762-0.027-0.055c-0.745-0.291-1.418-0.754-2.019-1.39-0.602-0.636-1.135-1.443-1.599-2.421v0c-0.871-1.834-0.95-3.404-0.236-4.709 0.714-1.305 2.305-2.544 4.775-3.717v0c2.47-1.173 4.477-1.538 6.021-1.095 1.544 0.443 2.85 1.79 3.918 4.04v0c0.302 0.636 0.533 1.257 0.694 1.862 0.163 0.597 0.261 1.165 0.292 1.704zM30.398 198.733v0c-0.801-1.687-1.697-2.659-2.688-2.916-0.982-0.253-2.417 0.069-4.306 0.966v0c-1.834 0.871-2.985 1.736-3.454 2.596-0.471 0.853-0.37 1.989 0.304 3.407v0c0.316 0.666 0.707 1.268 1.171 1.804 0.464 0.536 0.996 0.984 1.594 1.344v0l8.271-3.927c-0.029-0.518-0.114-1.044-0.254-1.577-0.141-0.533-0.353-1.099-0.637-1.697z" fill="#840028" data-fill-palette-color="secondary"></path><path d="M27.164 219.495v0c-0.908-1.38-1.242-2.638-1.002-3.777 0.236-1.144 1.041-2.167 2.415-3.071v0l8.506-5.596 1.356 2.061-8.252 5.429c-0.859 0.565-1.338 1.192-1.436 1.88-0.094 0.694 0.167 1.51 0.785 2.449v0c0.376 0.571 0.824 1.098 1.345 1.582 0.521 0.484 1.127 0.919 1.819 1.306v0l9.812-6.455 1.362 2.069-12.433 8.18-1.244-1.892 0.967-0.782-0.033-0.051c-1.025-0.573-1.841-1.118-2.448-1.634-0.607-0.516-1.113-1.082-1.519-1.698z" fill="#840028" data-fill-palette-color="secondary"></path><path d="M44.809 236.652v0l-1.568 1.369c-0.573-0.173-1.267-0.561-2.079-1.163-0.812-0.612-1.577-1.328-2.293-2.149v0c-1.384-1.586-1.926-3.076-1.625-4.47 0.306-1.399 1.532-3.035 3.678-4.909v0c2.101-1.834 3.957-2.722 5.57-2.666 1.613 0.057 3.291 1.084 5.036 3.083v0c0.383 0.438 0.717 0.847 1.003 1.227 0.287 0.37 0.637 0.868 1.05 1.496v0l-1.66 1.448c-0.413-0.628-0.766-1.124-1.057-1.489-0.296-0.37-0.636-0.775-1.018-1.213v0c-1.242-1.422-2.371-2.13-3.389-2.122-1.017 0.008-2.321 0.706-3.912 2.094v0c-1.591 1.389-2.498 2.526-2.721 3.413-0.223 0.887 0.155 1.891 1.134 3.013v0c0.543 0.622 1.167 1.209 1.873 1.76 0.71 0.557 1.37 0.983 1.978 1.278z" fill="#840028" data-fill-palette-color="secondary"></path><path d="M48.929 244.813v0c-1.133-1.018-1.72-2.04-1.76-3.069-0.04-1.019 0.469-2.117 1.527-3.295v0c1.076-1.198 2.161-1.757 3.253-1.677 1.092 0.071 2.408 0.798 3.948 2.182v0c0.509 0.457 0.989 0.929 1.442 1.418 0.453 0.489 0.855 0.973 1.207 1.452v0l0.963-1.072c0.742-0.826 1.064-1.605 0.967-2.338-0.102-0.737-0.613-1.52-1.535-2.347v0c-0.69-0.62-1.319-1.139-1.888-1.56-0.573-0.415-1.174-0.8-1.801-1.154v0l1.425-1.586c0.735 0.387 1.439 0.829 2.112 1.324 0.674 0.496 1.408 1.101 2.204 1.816v0c1.329 1.194 2.033 2.39 2.112 3.589 0.088 1.198-0.451 2.447-1.618 3.746v0l-6.723 7.484-1.684-1.513 0.846-1.109-0.045-0.041c-0.774-0.04-1.615-0.268-2.524-0.684-0.913-0.411-1.723-0.933-2.428-1.566zM54.751 240.64v0c-1.017-0.914-1.835-1.426-2.454-1.536-0.619-0.111-1.212 0.149-1.777 0.778v0c-0.588 0.655-0.847 1.277-0.777 1.868 0.065 0.586 0.47 1.214 1.215 1.883v0c0.584 0.525 1.262 0.975 2.035 1.35 0.777 0.37 1.479 0.596 2.107 0.678v0l2.136-2.379c-0.426-0.519-0.837-0.988-1.232-1.408-0.387-0.42-0.804-0.831-1.253-1.234z" fill="#840028" data-fill-palette-color="secondary"></path><path d="M68.344 256.622v0l-1.193 1.705c-0.342-0.066-0.766-0.222-1.271-0.467-0.503-0.237-0.96-0.498-1.37-0.786v0c-1.486-1.04-2.315-2.111-2.486-3.212-0.171-1.102 0.307-2.457 1.432-4.066v0l4.387-6.272-1.83-1.28 1.211-1.731 1.855 1.298 2.396-2.734 1.672 1.169-2.072 2.962 4.351 3.043-1.211 1.73-4.35-3.043-4.335 6.197c-0.702 1.004-0.994 1.816-0.874 2.436 0.119 0.62 0.648 1.258 1.585 1.914v0c0.294 0.206 0.652 0.419 1.075 0.641 0.423 0.222 0.766 0.387 1.028 0.496z" fill="#840028" data-fill-palette-color="secondary"></path><path d="M83.543 245.116l-1.312 2.196-2.274-1.359 1.312-2.196zM80.825 249.488l-7.632 12.776-2.118-1.265 7.632-12.776z" fill="#840028" data-fill-palette-color="secondary"></path><path d="M94.033 263.917v0c-1.176 2.558-2.477 4.15-3.905 4.775-1.427 0.625-3.281 0.413-5.562-0.635v0c-2.355-1.083-3.753-2.343-4.194-3.783-0.438-1.445-0.054-3.481 1.153-6.106v0c1.182-2.57 2.481-4.166 3.9-4.789 1.424-0.619 3.286-0.4 5.585 0.658v0c2.355 1.083 3.749 2.345 4.181 3.787 0.435 1.436 0.049 3.467-1.158 6.093zM83.779 259.17v0c-0.924 2.011-1.27 3.461-1.038 4.35 0.232 0.889 1.16 1.706 2.783 2.452v0c1.568 0.721 2.783 0.866 3.644 0.435 0.861-0.431 1.737-1.615 2.627-3.552v0c0.921-2.005 1.274-3.452 1.057-4.341-0.226-0.886-1.151-1.702-2.774-2.448v0c-1.586-0.729-2.809-0.881-3.667-0.457-0.858 0.425-1.735 1.612-2.632 3.561z" fill="#840028" data-fill-palette-color="secondary"></path><path d="M102.39 262.237l-3.345 11.111-2.362-0.711 4.29-14.251 2.051 0.618-0.309 1.412 0.088 0.026c0.945-0.345 1.875-0.524 2.791-0.538 0.918-0.021 1.895 0.125 2.932 0.438v0c1.581 0.476 2.661 1.232 3.24 2.269 0.579 1.036 0.637 2.323 0.174 3.858v0l-2.97 9.867-2.362-0.711 2.882-9.575c0.291-0.966 0.236-1.759-0.163-2.382-0.399-0.622-1.16-1.102-2.281-1.439v0c-0.687-0.207-1.426-0.309-2.218-0.308-0.786 0.004-1.598 0.109-2.438 0.316z" fill="#840028" data-fill-palette-color="secondary"></path><path d="M134.667 271.978l-8.397-0.812-0.748 7.74-2.547-0.247 1.819-18.804 12.055 1.166-0.224 2.314-9.508-0.92-0.63 6.507 8.397 0.813z" fill="#840028" data-fill-palette-color="secondary"></path><path d="M153.057 271.727v0c0.111 2.813-0.328 4.822-1.317 6.026-0.989 1.204-2.738 1.855-5.247 1.954v0c-2.59 0.102-4.408-0.389-5.453-1.472-1.045-1.09-1.625-3.079-1.738-5.966v0c-0.111-2.827 0.324-4.839 1.307-6.036 0.989-1.197 2.748-1.845 5.277-1.945v0c2.59-0.102 4.404 0.392 5.443 1.483 1.038 1.083 1.614 3.069 1.728 5.956zM141.766 272.141v0c0.087 2.211 0.435 3.661 1.044 4.348 0.61 0.687 1.807 0.996 3.593 0.925v0c1.724-0.068 2.873-0.489 3.445-1.263 0.572-0.774 0.817-2.227 0.733-4.357v0c-0.087-2.205-0.428-3.654-1.025-4.348-0.603-0.687-1.797-0.996-3.582-0.926v0c-1.745 0.069-2.903 0.487-3.476 1.254-0.573 0.768-0.817 2.223-0.732 4.367z" fill="#840028" data-fill-palette-color="secondary"></path><path d="M159.83 266.464l1.843 11.507-2.435 0.39-2.355-14.695 2.226-0.356 0.321 1.234 0.12-0.02c0.701-0.585 1.421-1.054 2.16-1.405 0.732-0.35 1.476-0.586 2.231-0.707v0c0.321-0.051 0.535-0.086 0.641-0.103 0.107-0.017 0.192-0.02 0.256-0.01v0l0.377 2.356c-0.147-0.018-0.325-0.017-0.534 0.003-0.208 0.027-0.53 0.075-0.964 0.144v0c-0.715 0.115-1.4 0.31-2.055 0.587-0.662 0.277-1.272 0.636-1.832 1.075z" fill="#840028" data-fill-palette-color="secondary"></path><path d="M180.555 270.861l9.452-3.167 0.765 2.281-11.878 3.98-6.003-17.913 11.618-3.893 0.739 2.204-9.192 3.08 1.838 5.487 8.143-2.729 0.716 2.137-8.143 2.729z" fill="#840028" data-fill-palette-color="secondary"></path><path d="M199.636 263.123l-1.725-13.25 2.423-1.215 1.551 15.87-2.523 1.265-11.787-10.739 2.45-1.228z" fill="#840028" data-fill-palette-color="secondary"></path><path d="M218.677 250.913v0l1.15 1.735c-0.281 0.519-0.785 1.15-1.511 1.891-0.73 0.736-1.53 1.392-2.398 1.968v0c-1.946 1.29-3.669 1.71-5.17 1.26-1.501-0.45-3.018-1.832-4.551-4.145v0c-1.477-2.228-2.116-4.135-1.917-5.72 0.195-1.591 1.249-3.021 3.161-4.289v0c1.771-1.174 3.307-1.62 4.607-1.337 1.294 0.287 2.559 1.361 3.793 3.222v0c0.221 0.333 0.416 0.646 0.586 0.939 0.174 0.299 0.368 0.665 0.583 1.099v0l-8.232 5.459c0.926 1.359 1.854 2.153 2.784 2.38 0.936 0.224 2.073-0.107 3.41-0.994v0c0.722-0.479 1.43-1.046 2.124-1.701 0.704-0.653 1.231-1.242 1.581-1.767zM213.778 246.464v0c-0.75-1.094-1.511-1.715-2.282-1.861-0.78-0.148-1.721 0.142-2.82 0.871v0c-1.241 0.823-1.944 1.667-2.11 2.532-0.156 0.867 0.203 1.96 1.079 3.28v0l6.455-4.281c-0.022-0.034-0.072-0.115-0.148-0.242-0.071-0.132-0.129-0.231-0.174-0.299z" fill="#840028" data-fill-palette-color="secondary"></path><path d="M219.706 238.809l7.503 8.917-1.887 1.589-9.582-11.388 1.725-1.451 0.91 0.892 0.093-0.078c0.3-0.863 0.676-1.635 1.129-2.316 0.447-0.677 0.964-1.262 1.549-1.755v0c0.249-0.209 0.414-0.349 0.497-0.418 0.083-0.07 0.154-0.116 0.214-0.14v0l1.536 1.825c-0.135 0.06-0.287 0.153-0.456 0.278-0.165 0.13-0.416 0.336-0.753 0.62v0c-0.554 0.466-1.041 0.986-1.46 1.56-0.424 0.578-0.764 1.2-1.018 1.865z" fill="#840028" data-fill-palette-color="secondary"></path><path d="M238.026 241.184v0c0.521-0.56 0.794-1.096 0.819-1.61 0.025-0.513-0.269-1.355-0.881-2.525v0l-14.881-5.543 1.888-2.029 12.052 4.962-5.979-11.486 1.805-1.94 7.48 15.269c0.691 1.383 0.998 2.533 0.921 3.45-0.072 0.922-0.498 1.802-1.278 2.639v0c-0.235 0.253-0.492 0.499-0.77 0.739-0.283 0.245-0.572 0.48-0.866 0.706v0l-1.59-1.48c0.197-0.122 0.395-0.275 0.594-0.459 0.199-0.184 0.428-0.415 0.686-0.693z" fill="#840028" data-fill-palette-color="secondary"></path><path d="M248.196 212.429v0c2.286 1.644 3.599 3.226 3.939 4.746 0.34 1.52-0.222 3.3-1.688 5.338v0c-1.513 2.104-3.019 3.235-4.515 3.392-1.502 0.153-3.427-0.614-5.773-2.301v0c-2.297-1.652-3.614-3.233-3.953-4.744-0.335-1.516 0.236-3.302 1.714-5.357v0c1.513-2.104 3.019-3.23 4.518-3.378 1.493-0.152 3.412 0.616 5.758 2.304zM241.575 221.584v0c1.797 1.292 3.153 1.909 4.07 1.852 0.917-0.058 1.897-0.812 2.94-2.263v0c1.008-1.401 1.382-2.565 1.124-3.493-0.258-0.928-1.253-2.014-2.984-3.258v0c-1.791-1.288-3.144-1.911-4.058-1.868-0.913 0.052-1.891 0.803-2.934 2.253v0c-1.019 1.418-1.403 2.588-1.15 3.512 0.253 0.924 1.25 2.012 2.991 3.265z" fill="#840028" data-fill-palette-color="secondary"></path><path d="M248.15 203.904l10.263 5.414-1.151 2.182-13.164-6.944 1-1.894 1.327 0.574 0.043-0.081c-0.157-0.993-0.155-1.941 0.007-2.843 0.156-0.905 0.486-1.836 0.991-2.794v0c0.77-1.461 1.72-2.375 2.848-2.744 1.128-0.369 2.402-0.179 3.821 0.569v0l9.113 4.807-1.15 2.182-8.845-4.665c-0.892-0.47-1.681-0.569-2.368-0.297-0.687 0.273-1.304 0.927-1.85 1.962v0c-0.335 0.635-0.577 1.341-0.728 2.119-0.147 0.772-0.2 1.59-0.157 2.453z" fill="#840028" data-fill-palette-color="secondary"></path><path d="M266.7 182.405v0l1.96 0.698c0.087 0.584 0.062 1.391-0.075 2.42-0.143 1.027-0.389 2.031-0.738 3.013v0c-0.783 2.2-1.91 3.569-3.382 4.108-1.471 0.539-3.513 0.344-6.127-0.587v0c-2.518-0.897-4.173-2.039-4.965-3.428-0.798-1.391-0.812-3.166-0.042-5.328v0c0.713-2.002 1.674-3.28 2.884-3.833 1.208-0.547 2.864-0.446 4.968 0.304v0c0.376 0.134 0.72 0.267 1.032 0.4 0.318 0.135 0.694 0.312 1.126 0.53v0l-3.314 9.305c1.556 0.533 2.775 0.611 3.655 0.235 0.883-0.382 1.594-1.329 2.133-2.84v0c0.291-0.816 0.517-1.694 0.679-2.635 0.171-0.945 0.24-1.732 0.206-2.362zM260.111 181.783v0c-1.256-0.426-2.237-0.466-2.942-0.121-0.714 0.349-1.292 1.146-1.734 2.389v0c-0.5 1.403-0.556 2.5-0.17 3.29 0.395 0.787 1.338 1.447 2.83 1.978v0l2.599-7.296c-0.038-0.014-0.126-0.049-0.265-0.105-0.136-0.063-0.242-0.108-0.318-0.135z" fill="#840028" data-fill-palette-color="secondary"></path></g></svg></g></svg></g></svg></g></svg></g><defs></defs></svg><rect width="279.72" height="279.72" fill="none" stroke="none" visibility="hidden"></rect></g></svg></g></svg>